<svg width="256" height="256" viewBox="0 0 256 256" fill="none" xmlns="http://www.w3.org/2000/svg">
<rect width="256" height="256" rx="56" fill="white"/>
<path d="M240.603 164.138C240.603 181.242 226.649 194.107 209.315 194.107H16V141.626C16 130.662 24.9606 120.575 35.9778 120.575H58.7466V118.967C58.7466 104.787 70.0576 92.3614 84.4534 92.3614H110.16V91.1918C112.07 75.6961 125.438 63.8552 141.155 64.0013H209.462C226.649 64.0013 240.75 79.2047 240.75 96.3083V164.138H240.603Z" fill="white"/>
<path d="M35.9663 128.903H70.046C76.3626 128.903 81.357 133.874 81.357 140.16V174.074C81.357 180.361 76.3626 185.331 70.046 185.331H24.6553V140.014C24.6553 133.874 29.6498 128.903 35.9663 128.903Z" fill="#27A770"/>
<path d="M135.41 100.691H84.2899C74.8885 100.691 67.25 108.293 67.25 117.649V120.573H70.1879C81.2051 120.573 90.019 129.49 90.019 140.307V174.223C90.019 178.316 88.6968 182.116 86.4933 185.479H135.556C144.958 185.479 152.596 177.877 152.596 168.521V117.649C152.596 108.293 144.811 100.691 135.41 100.691Z" fill="#F15060"/>
<path d="M209.459 72.3319H141.153C129.695 72.3319 119.999 80.6645 118.53 92.067H135.276C149.378 92.067 160.983 103.323 161.13 117.649V168.522C161.13 174.808 158.633 180.802 154.52 185.48H209.606C222.091 185.48 232.375 175.247 232.375 162.821V94.9906C231.934 82.5649 221.945 72.3319 209.459 72.3319Z" fill="#FAAF3F"/>
</svg>
