<svg xmlns="http://www.w3.org/2000/svg" xmlns:xlink="http://www.w3.org/1999/xlink" id="CW_ICON" x="0px" y="0px" viewBox="0 0 55 55" style="enable-background:new 0 0 55 55;" xml:space="preserve"><g>	<path fill="#003593" d="M28.7,25.8c-0.4-0.9-1.2-1.4-2.2-1.4h-0.9c-1,0-2,0.6-2.2,1.6c-1,4.7-1.6,15.1-11,15.6c-1.8,0-3.2-0.6-4.3-1.6  c-1.2-1.1-2-2.8-2-4.9C6.1,33,7,31.4,8,30.5c0.4-0.4,2-1.8,4.5-1.8c0.5,0,1.2,0.1,1.8,0.3c1.5,0.5,3-0.6,3-2.1v-0.1  c0-0.9-0.6-1.6-1.5-1.9c-1.2-0.4-2.2-0.5-3.1-0.5c-3.9,0-6.5,1.2-8.3,2.9c-1.9,1.8-3.3,4.6-3.3,8c0,3.3,1.4,6.1,3.3,7.9  c1.9,1.8,4.6,2.9,7.8,3c6,0.2,11.8-3.1,14-11.9c0.4-1.6,0.7-3,1-4.2c0.3-1,1.9-1.6,2.6-0.4L28.7,25.8z"></path>	<path fill="#003593" d="M53.8,27.5c0,0.2,0,0.5-0.1,0.8l-5.5,16.3c-0.3,1-1.2,1.6-2.2,1.6h-0.8c-0.9,0-1.8-0.6-2.2-1.4l-1.6-3.7  c0-0.1-0.2-0.3-0.3-0.5c-0.6-0.6-1.2-0.9-2.1-0.8c-0.7,0-1.5,0.4-1.9,1.3l-0.2,0.5l-1.4,3.2c-0.4,0.9-1.2,1.4-2.2,1.4h-0.8  c-1,0-1.9-0.7-2.2-1.6l-3.7-10.8c0.3-1.2,0.5-2.1,0.7-3.1c0.6-2.5,2-3.6,3-0.3l0.6,1.9l0.4,1.1c0.6,1.8,3,2.2,4,0.9  c0.1-0.1,0.3-0.5,0.4-0.6l1.3-2.6c0-0.1,0.1-0.1,0.1-0.2c0.1-0.1,0.2-0.3,0.3-0.4c0.1-0.1,0.1-0.1,0.2-0.2c0.4-0.4,1-0.6,1.6-0.6  h0.3c0.9,0,1.7,0.5,2.1,1.3l1.3,2.6c0.2,0.4,0.5,0.8,0.9,1c0,0,0,0,0,0c0.7,0.4,1.6,0.4,2.3,0.1c0.1-0.1,0.3-0.2,0.4-0.3  c0.3-0.3,0.6-0.7,0.9-1.3l2-6.4c0.3-1,1.2-1.6,2.3-1.6C52.8,25.2,53.8,26.3,53.8,27.5z"></path>	<g>		<path fill="#003593" d="M15,22c-3.6,0-6.6-3-6.6-6.6s3-6.6,6.6-6.6s6.6,3,6.6,6.6S18.6,22,15,22z M15,12.6c-1.5,0-2.8,1.3-2.8,2.8   s1.3,2.8,2.8,2.8s2.8-1.3,2.8-2.8S16.6,12.6,15,12.6z"></path>	</g>	<g>		<path fill="#003593" d="M39.1,27.1c-3.3,0-5.9-2.7-5.9-5.9s2.7-5.9,5.9-5.9c3.3,0,5.9,2.7,5.9,5.9S42.4,27.1,39.1,27.1z M39.1,19   c-1.2,0-2.2,1-2.2,2.2c0,1.2,1,2.2,2.2,2.2s2.2-1,2.2-2.2C41.3,20,40.3,19,39.1,19z"></path>	</g>			<linearGradient id="SVGID_1_" gradientUnits="userSpaceOnUse" x1="-7.3419" y1="135.4072" x2="30.974" y2="157.5289" gradientTransform="matrix(1 0 0 -1 0 182.2407)">		<stop offset="0.4674" style="stop-color:#0099BD;stop-opacity:0"></stop>		<stop offset="0.8827" style="stop-color:#0099BD;stop-opacity:0.9043"></stop>		<stop offset="0.9266" style="stop-color:#0099BD"></stop>	</linearGradient>	<path fill="url(#SVGID_1_)" d="M28.7,25.8c-0.4-0.9-1.2-1.4-2.2-1.4h-0.9c-1,0-2,0.6-2.2,1.6c-1,4.7-1.6,15.1-11,15.6c-1.8,0-3.2-0.6-4.3-1.6  c-1.2-1.1-2-2.8-2-4.9C6.1,33,7,31.4,8,30.5c0.4-0.4,2-1.8,4.5-1.8c0.5,0,1.2,0.1,1.8,0.3c1.5,0.5,3-0.6,3-2.1v-0.1  c0-0.9-0.6-1.6-1.5-1.9c-1.2-0.4-2.2-0.5-3.1-0.5c-3.9,0-6.5,1.2-8.3,2.9c-1.9,1.8-3.3,4.6-3.3,8c0,3.3,1.4,6.1,3.3,7.9  c1.9,1.8,4.6,2.9,7.8,3c6,0.2,11.8-3.1,14-11.9c0.4-1.6,0.7-3,1-4.2c0.3-1,1.9-1.6,2.6-0.4L28.7,25.8z"></path>	<g>					<linearGradient id="SVGID_00000106869520610358643850000007392740757296160655_" gradientUnits="userSpaceOnUse" x1="10.3719" y1="10.7418" x2="43.3633" y2="43.7333">			<stop offset="0" style="stop-color:#0099BD"></stop>			<stop offset="0.2673" style="stop-color:#0099BD;stop-opacity:0"></stop>		</linearGradient>		<path style="fill:url(#SVGID_00000106869520610358643850000007392740757296160655_);" d="M15,22c-3.6,0-6.6-3-6.6-6.6   s3-6.6,6.6-6.6s6.6,3,6.6,6.6S18.6,22,15,22z M15,12.6c-1.5,0-2.8,1.3-2.8,2.8s1.3,2.8,2.8,2.8s2.8-1.3,2.8-2.8S16.6,12.6,15,12.6   z"></path>	</g></g></svg>