<svg xmlns="http://www.w3.org/2000/svg" version="1.1" xmlns:xlink="http://www.w3.org/1999/xlink" xmlns:svgjs="http://svgjs.com/svgjs" width="256" height="256"><svg id="SvgjsSvg1000" data-name="Layer 1" xmlns="http://www.w3.org/2000/svg" viewBox="0 0 256 256"><rect width="256" height="256" rx="8" style="fill:#052838"></rect><path d="M84.09,131.55A9.14,9.14,0,0,1,75,122.41V71.74a9.15,9.15,0,0,1,18.29,0v50.67A9.15,9.15,0,0,1,84.09,131.55Z" style="fill:#fff"></path><path d="M84.1,165.09a9.34,9.34,0,0,1-6.56-2.71,9,9,0,0,1-2-3,10.44,10.44,0,0,1-.52-1.73A8.72,8.72,0,0,1,75,154a10.27,10.27,0,0,1,.52-1.74,9,9,0,0,1,.85-1.59,8.7,8.7,0,0,1,1.16-1.41A9.2,9.2,0,0,1,79,148.12a11.11,11.11,0,0,1,1.59-.86,9.26,9.26,0,0,1,1.73-.52,9.69,9.69,0,0,1,3.64,0,9,9,0,0,1,1.73.52,11.22,11.22,0,0,1,1.6.86,10.27,10.27,0,0,1,1.41,1.15,10.55,10.55,0,0,1,1.15,1.41,9,9,0,0,1,.85,1.59,9.46,9.46,0,0,1,.53,1.74,9.19,9.19,0,0,1,0,3.62,9.6,9.6,0,0,1-.53,1.73A9.91,9.91,0,0,1,91.8,161a10.55,10.55,0,0,1-1.15,1.41,10.19,10.19,0,0,1-1.41,1.14,8.56,8.56,0,0,1-1.61.85,8.8,8.8,0,0,1-1.72.54A10.1,10.1,0,0,1,84.1,165.09Z" style="fill:#00a1aa"></path><path d="M84.1,47.42a9.29,9.29,0,0,1-6.56-2.71,8.7,8.7,0,0,1-1.16-1.41,9.32,9.32,0,0,1-.85-1.59A10.27,10.27,0,0,1,75,40a8.67,8.67,0,0,1,0-3.61,10.27,10.27,0,0,1,.52-1.74A9.91,9.91,0,0,1,76.38,33a9.66,9.66,0,0,1,1.16-1.41,9.28,9.28,0,0,1,13.11,0A10.27,10.27,0,0,1,91.8,33a9.91,9.91,0,0,1,.85,1.61,9.46,9.46,0,0,1,.53,1.74,9.11,9.11,0,0,1,.18,1.81,9.25,9.25,0,0,1-9.26,9.25Z" style="fill:#00a1aa"></path><path d="M171.9,165.09a10.1,10.1,0,0,1-1.81-.18,8.89,8.89,0,0,1-1.73-.54,7.91,7.91,0,0,1-1.6-.85,9.13,9.13,0,0,1-1.41-1.14,9.27,9.27,0,0,1-2.53-8.37,8.13,8.13,0,0,1,.53-1.74,9,9,0,0,1,.85-1.59,9,9,0,0,1,2.56-2.56,9.8,9.8,0,0,1,1.6-.86,8.83,8.83,0,0,1,1.73-.52,9.58,9.58,0,0,1,3.62,0,8.83,8.83,0,0,1,1.73.52,10.34,10.34,0,0,1,1.61.86,9.2,9.2,0,0,1,1.41,1.15,8.58,8.58,0,0,1,1.14,1.41,7,7,0,0,1,.85,1.59A8.77,8.77,0,0,1,181,154a8.72,8.72,0,0,1,0,3.62,8.89,8.89,0,0,1-.54,1.73,7.54,7.54,0,0,1-.85,1.61,8.58,8.58,0,0,1-1.14,1.41,9.13,9.13,0,0,1-1.41,1.14,8.26,8.26,0,0,1-1.61.85,8.89,8.89,0,0,1-1.73.54A10,10,0,0,1,171.9,165.09Z" style="fill:#00a1aa"></path><path d="M171.9,198.54a8.55,8.55,0,0,1-1.81-.18,8.83,8.83,0,0,1-1.73-.52,10.59,10.59,0,0,1-1.6-.85,9.89,9.89,0,0,1-1.41-1.16,8.32,8.32,0,0,1-1.15-1.41,9,9,0,0,1-.85-1.59,8.13,8.13,0,0,1-.53-1.74,9.14,9.14,0,0,1,0-3.61,8.13,8.13,0,0,1,.53-1.74,8.56,8.56,0,0,1,.85-1.61,9,9,0,0,1,1.15-1.39,9.1,9.1,0,0,1,3-2,10.51,10.51,0,0,1,1.73-.54,9.31,9.31,0,0,1,8.35,2.55,8.56,8.56,0,0,1,1.16,1.39,7.54,7.54,0,0,1,.85,1.61,8.77,8.77,0,0,1,.54,1.74,8.67,8.67,0,0,1,0,3.61,8.77,8.77,0,0,1-.54,1.74,7,7,0,0,1-.85,1.59,7.92,7.92,0,0,1-1.16,1.41A9.21,9.21,0,0,1,171.9,198.54Z" style="fill:#00a1aa"></path><path d="M171.9,131.57a9.15,9.15,0,0,1-9.14-9.15V71.74a9.15,9.15,0,0,1,18.29,0v50.68A9.15,9.15,0,0,1,171.9,131.57Z" style="fill:#fff"></path><path d="M128,227.11a10,10,0,0,1-1.81-.18,11.52,11.52,0,0,1-1.73-.53,8.89,8.89,0,0,1-1.61-.86,8.58,8.58,0,0,1-1.41-1.14A9.51,9.51,0,0,1,120.3,223a8.44,8.44,0,0,1-.85-1.59,9.2,9.2,0,0,1-.54-1.74,10.11,10.11,0,0,1-.19-1.81,9.38,9.38,0,0,1,2.72-6.56,8.7,8.7,0,0,1,1.41-1.16,11.21,11.21,0,0,1,1.61-.85,9.56,9.56,0,0,1,1.73-.52,9.26,9.26,0,0,1,10.89,10.9,8.5,8.5,0,0,1-.53,1.74,10.61,10.61,0,0,1-.85,1.59,10.27,10.27,0,0,1-1.15,1.41,9.1,9.1,0,0,1-1.42,1.14,8.72,8.72,0,0,1-1.59.86,11.52,11.52,0,0,1-1.73.53A10.1,10.1,0,0,1,128,227.11Z" style="fill:#00a1aa"></path><path d="M128,193.57a9.15,9.15,0,0,1-9.15-9.14V71.74a9.15,9.15,0,0,1,18.29,0V184.43A9.14,9.14,0,0,1,128,193.57Z" style="fill:#fff"></path></svg><style>@media (prefers-color-scheme: light) { :root { filter: none; } }
</style></svg>