<?xml version="1.0" encoding="UTF-8" standalone="no"?><svg xmlns="http://www.w3.org/2000/svg" width="1098" height="141" viewBox="0 0 1098 141">
  <g fill="none" fill-rule="evenodd">
    <polyline fill="#FFFFFE" points="18.457 .844 59.365 98.294 100.707 .844 119.164 .844 59.003 141 0 .844 18.457 .844"/>
    <polygon fill="#FFFFFE" points="123.062 132.603 139.927 132.603 139.927 20.844 123.062 20.844"/>
    <path fill="#FFFFFE" d="M229.97,37.492 L216.29,45.599 C213.732,41.16 211.295,38.264 208.979,36.913 C206.566,35.369 203.454,34.597 199.642,34.597 C194.961,34.597 191.076,35.925 187.988,38.578 C184.9,41.184 183.356,44.466 183.356,48.422 C183.356,53.876 187.409,58.266 195.516,61.595 L206.663,66.155 C215.735,69.823 222.37,74.299 226.568,79.583 C230.767,84.867 232.866,91.345 232.866,99.017 C232.866,109.296 229.439,117.79 222.587,124.496 C215.686,131.253 207.121,134.63 196.892,134.63 C187.192,134.63 179.182,131.76 172.86,126.016 C166.636,120.274 162.751,112.191 161.207,101.768 L178.289,98.005 C179.061,104.567 180.412,109.103 182.343,111.612 C185.817,116.438 190.884,118.85 197.543,118.85 C202.802,118.85 207.17,117.09 210.644,113.566 C214.119,110.045 215.856,105.581 215.856,100.175 C215.856,98.005 215.554,96.013 214.951,94.204 C214.347,92.394 213.406,90.73 212.128,89.21 C210.849,87.689 209.197,86.267 207.17,84.939 C205.143,83.612 202.729,82.345 199.932,81.139 L189.146,76.651 C173.849,70.185 166.201,60.727 166.201,48.277 C166.201,39.881 169.41,32.86 175.828,27.214 C182.246,21.521 190.232,18.673 199.787,18.673 C212.671,18.673 222.732,24.946 229.97,37.492"/>
    <polygon fill="#FFFFFE" points="253.205 132.603 270.07 132.603 270.07 20.844 253.205 20.844"/>
    <path fill="#FFFFFE" d="M308.36,76.434 C308.36,88.788 312.51,98.945 320.81,106.907 C329.062,114.869 338.591,118.85 349.401,118.85 C361.127,118.85 371.019,114.797 379.078,106.69 C387.136,98.487 391.166,88.499 391.166,76.723 C391.166,64.805 387.185,54.817 379.223,46.757 C371.308,38.65 361.513,34.597 349.835,34.597 C338.206,34.597 328.385,38.65 320.376,46.757 C312.365,54.768 308.36,64.66 308.36,76.434 Z M291.351,76.217 C291.351,60.486 297.116,46.974 308.65,35.682 C320.134,24.391 333.935,18.745 350.053,18.745 C365.977,18.745 379.632,24.44 391.021,35.827 C402.458,47.216 408.176,60.897 408.176,76.869 C408.176,92.937 402.433,106.57 390.949,117.764 C379.415,129.009 365.494,134.63 349.184,134.63 C334.755,134.63 321.799,129.636 310.315,119.646 C297.671,108.596 291.351,94.121 291.351,76.217 L291.351,76.217 Z"/>
    <polyline fill="#FFFFFE" points="689.816 36.696 689.816 132.603 672.951 132.603 672.951 36.696 647.256 36.696 647.256 20.844 715.439 20.844 715.439 36.696 689.816 36.696"/>
    <polygon fill="#FFFFFE" points="730.495 132.603 747.36 132.603 747.36 20.844 730.495 20.844"/>
    <path fill="#FFFFFE" d="M785.65,76.434 C785.65,88.788 789.8,98.945 798.101,106.907 C806.352,114.869 815.882,118.85 826.691,118.85 C838.417,118.85 848.309,114.797 856.368,106.69 C864.427,98.487 868.456,88.499 868.456,76.723 C868.456,64.805 864.475,54.817 856.513,46.757 C848.599,38.65 838.803,34.597 827.126,34.597 C815.496,34.597 805.676,38.65 797.666,46.757 C789.655,54.768 785.65,64.66 785.65,76.434 Z M768.641,76.217 C768.641,60.486 774.406,46.974 785.94,35.682 C797.424,24.391 811.226,18.745 827.343,18.745 C843.267,18.745 856.922,24.44 868.312,35.827 C879.748,47.216 885.466,60.897 885.466,76.869 C885.466,92.937 879.723,106.57 868.239,117.764 C856.705,129.009 842.784,134.63 826.475,134.63 C812.045,134.63 799.089,129.636 787.604,119.646 C774.962,108.596 768.641,94.121 768.641,76.217 L768.641,76.217 Z"/>
    <polyline fill="#FFFFFE" points="906.674 132.603 906.674 13.244 988.177 98.51 988.177 20.844 1005.04 20.844 1005.04 139.407 923.539 54.357 923.539 132.603 906.674 132.603"/>
    <path fill="#FFFFFE" d="M1095.01,37.492 L1081.33,45.599 C1078.77,41.16 1076.34,38.264 1074.02,36.913 C1071.61,35.369 1068.5,34.597 1064.68,34.597 C1060,34.597 1056.12,35.925 1053.03,38.578 C1049.94,41.184 1048.4,44.466 1048.4,48.422 C1048.4,53.876 1052.45,58.266 1060.56,61.595 L1071.71,66.155 C1080.78,69.823 1087.41,74.299 1091.61,79.583 C1095.81,84.867 1097.91,91.345 1097.91,99.017 C1097.91,109.296 1094.48,117.79 1087.63,124.496 C1080.73,131.253 1072.16,134.63 1061.93,134.63 C1052.24,134.63 1044.22,131.76 1037.9,126.016 C1031.68,120.274 1027.79,112.191 1026.25,101.768 L1043.33,98.005 C1044.1,104.567 1045.46,109.103 1047.39,111.612 C1050.86,116.438 1055.93,118.85 1062.59,118.85 C1067.84,118.85 1072.21,117.09 1075.69,113.566 C1079.16,110.045 1080.9,105.581 1080.9,100.175 C1080.9,98.005 1080.6,96.013 1079.99,94.204 C1079.39,92.394 1078.45,90.73 1077.17,89.21 C1075.89,87.689 1074.24,86.267 1072.21,84.939 C1070.19,83.612 1067.77,82.345 1064.97,81.139 L1054.19,76.651 C1038.89,70.185 1031.24,60.727 1031.24,48.277 C1031.24,39.881 1034.45,32.86 1040.87,27.214 C1047.29,21.521 1055.28,18.673 1064.83,18.673 C1077.71,18.673 1087.78,24.946 1095.01,37.492"/>
    <polyline fill="#FFFFFE" points="542.621 133.291 596.624 13.135 651.785 133.291 633.327 133.291 596.985 53.842 561.079 133.291 542.621 133.291"/>
    <polyline fill="#FFFFFE" points="429.384 57.19 429.384 132.603 446.249 132.603 446.249 74.055 429.384 57.19"/>
    <polyline fill="#FFFFFE" points="510.887 20.844 510.887 98.51 429.384 13.244 429.384 37.215 446.249 54.357 527.752 139.407 527.752 20.844 510.887 20.844"/>
  </g>
</svg>
